<?xml version="1.0" standalone="no"?>
<!DOCTYPE svg PUBLIC "-//W3C//DTD SVG 20010904//EN"
 "http://www.w3.org/TR/2001/REC-SVG-20010904/DTD/svg10.dtd">
<svg version="1.0" xmlns="http://www.w3.org/2000/svg"
 width="1152.000000pt" height="896.000000pt" viewBox="0 0 1152.000000 896.000000"
 preserveAspectRatio="xMidYMid meet">

<g transform="translate(0.000000,896.000000) scale(0.100000,-0.100000)"
fill="#000000" stroke="none">
<path d="M5027 6944 c-3 -4 -21 -10 -39 -15 -28 -7 -25 -8 14 -3 27 3 49 1 53
-6 8 -13 25 -13 25 0 0 6 -7 10 -15 10 -8 0 -15 5 -15 10 0 11 -13 13 -23 4z"/>
<path d="M5128 6933 c7 -3 16 -2 19 1 4 3 -2 6 -13 5 -11 0 -14 -3 -6 -6z"/>
<path d="M4990 6900 c0 -12 8 -12 35 0 18 8 17 9 -7 9 -16 1 -28 -3 -28 -9z"/>
<path d="M4960 6890 c0 -5 5 -10 10 -10 6 0 10 5 10 10 0 6 -4 10 -10 10 -5 0
-10 -4 -10 -10z"/>
<path d="M4895 6870 c-3 -5 1 -10 10 -10 9 0 13 5 10 10 -3 6 -8 10 -10 10 -2
0 -7 -4 -10 -10z"/>
<path d="M4785 6860 c-3 -5 -14 -10 -23 -10 -23 0 -121 -48 -100 -49 9 -1 28
3 42 9 14 5 25 6 23 1 -1 -5 3 -8 8 -7 6 0 9 4 8 7 -1 3 8 4 21 2 13 -3 27 0
30 6 4 6 0 11 -10 11 -14 0 -15 3 -6 12 9 9 15 9 24 0 15 -15 28 -16 28 -2 0
6 -7 10 -16 10 -8 0 -12 5 -9 10 3 6 2 10 -4 10 -5 0 -13 -4 -16 -10z"/>
<path d="M4847 6864 c-11 -11 3 -24 18 -18 8 4 12 10 9 15 -6 11 -18 12 -27 3z"/>
<path d="M5096 6847 c-32 -10 -36 -14 -25 -24 11 -9 36 -7 109 8 52 11 100 22
105 24 12 6 -81 -4 -114 -12 -17 -4 -22 -2 -17 6 9 14 -7 13 -58 -2z"/>
<path d="M5016 6821 c-3 -5 1 -11 9 -14 9 -4 12 -1 8 9 -6 16 -10 17 -17 5z"/>
<path d="M4970 6810 c-13 -8 -12 -10 3 -10 9 0 17 5 17 10 0 12 -1 12 -20 0z"/>
<path d="M4622 6791 c-9 -5 -4 -11 15 -20 19 -9 29 -9 31 -2 2 6 15 11 28 11
13 0 24 5 24 10 0 13 -13 13 -45 -2 -20 -9 -28 -9 -33 0 -4 6 -13 7 -20 3z"/>
<path d="M4890 6780 c-18 -12 -2 -12 25 0 13 6 15 9 5 9 -8 0 -22 -4 -30 -9z"/>
<path d="M4960 6780 c-18 -12 -2 -12 25 0 13 6 15 9 5 9 -8 0 -22 -4 -30 -9z"/>
<path d="M4560 6759 c-39 -20 -21 -25 25 -5 16 6 25 15 20 18 -6 3 -26 -2 -45
-13z"/>
<path d="M4800 6746 c-30 -12 -54 -26 -53 -32 1 -5 -17 -19 -40 -31 -23 -12
-38 -22 -32 -23 16 0 206 85 195 88 -6 2 -8 8 -4 13 8 13 -5 11 -66 -15z m20
-16 c-20 -13 -33 -13 -25 0 3 6 14 10 23 10 15 0 15 -2 2 -10z m-43 -16 c-3
-3 -12 -4 -19 -1 -8 3 -5 6 6 6 11 1 17 -2 13 -5z"/>
<path d="M4900 6760 c-18 -12 -2 -12 25 0 13 6 15 9 5 9 -8 0 -22 -4 -30 -9z"/>
<path d="M4593 6748 c-21 -10 -32 -28 -18 -28 10 0 65 30 65 35 0 8 -23 4 -47
-7z"/>
<path d="M4508 6723 c7 -3 16 -2 19 1 4 3 -2 6 -13 5 -11 0 -14 -3 -6 -6z"/>
<path d="M4715 6710 c-3 -5 -1 -10 4 -10 6 0 11 5 11 10 0 6 -2 10 -4 10 -3 0
-8 -4 -11 -10z"/>
<path d="M4384 6655 c-12 -9 -14 -14 -6 -15 7 0 20 7 28 15 20 19 4 20 -22 0z"/>
<path d="M4450 6660 c0 -5 5 -10 10 -10 6 0 10 5 10 10 0 6 -4 10 -10 10 -5 0
-10 -4 -10 -10z"/>
<path d="M4401 6631 c-8 -6 -9 -11 -3 -15 6 -3 14 -1 17 5 9 14 2 20 -14 10z"/>
<path d="M4604 6624 c-18 -14 -18 -14 6 -3 31 14 36 19 24 19 -6 0 -19 -7 -30
-16z"/>
<path d="M4285 6585 c-23 -19 -26 -24 -12 -25 9 0 17 -5 17 -12 0 -6 3 -8 6
-5 4 4 1 13 -6 22 -10 12 -10 15 3 15 8 0 17 7 21 15 7 20 6 19 -29 -10z"/>
<path d="M4350 6595 c-8 -9 -8 -15 -2 -15 12 0 26 19 19 26 -2 2 -10 -2 -17
-11z"/>
<path d="M4534 6584 c-18 -14 -18 -15 4 -4 12 6 22 13 22 15 0 8 -5 6 -26 -11z"/>
<path d="M3610 5959 c0 -4 9 -9 20 -12 19 -5 20 -14 20 -157 0 -143 -1 -152
-20 -157 -49 -13 -10 -18 114 -15 l134 3 5 27 c3 15 9 35 12 45 4 10 3 17 -4
17 -6 0 -11 -6 -11 -14 0 -8 -12 -24 -27 -36 -22 -17 -38 -20 -87 -18 l-61 3
0 145 c0 142 0 145 24 156 21 11 16 13 -48 16 -39 1 -71 0 -71 -3z"/>
<path d="M4720 5961 c0 -5 -29 -78 -65 -164 -47 -110 -72 -157 -88 -165 -18
-9 -13 -11 33 -11 48 0 53 1 37 13 -17 13 -17 16 -1 55 l17 42 65 -3 65 -3 14
-40 c12 -36 12 -41 -4 -52 -14 -11 -6 -13 53 -13 57 1 65 3 49 12 -27 16 -27
14 -97 186 -54 132 -78 177 -78 143z m28 -151 l21 -60 -49 0 c-28 0 -50 4 -50
9 0 15 42 111 49 111 4 0 17 -27 29 -60z"/>
<path d="M5160 5962 c0 -6 9 -14 20 -17 18 -6 20 -15 20 -118 0 -93 -2 -109
-13 -97 -8 8 -53 63 -102 123 l-88 107 -46 0 -46 -1 28 -15 c27 -15 27 -15 29
-134 1 -66 2 -130 2 -142 1 -14 -8 -27 -24 -35 -23 -12 -20 -13 34 -13 57 0
58 0 37 18 -20 16 -22 25 -19 131 l3 114 101 -124 c56 -68 108 -130 117 -138
16 -12 17 -1 17 151 0 161 1 165 23 176 20 10 20 11 -13 11 -19 1 -45 4 -57 7
-13 4 -23 2 -23 -4z"/>
<path d="M5435 5934 c-9 -22 -39 -94 -67 -162 -29 -70 -59 -129 -71 -137 -20
-14 -18 -15 33 -15 48 0 52 1 35 14 -17 12 -18 16 -4 52 l15 39 65 3 66 3 13
-42 c13 -37 12 -43 -4 -54 -15 -11 -8 -14 48 -17 67 -3 81 3 47 22 -11 5 -28
34 -39 62 -27 72 -108 257 -115 264 -3 4 -13 -11 -22 -32z m54 -171 c1 -9 -15
-13 -49 -13 -27 0 -50 2 -50 5 0 2 12 30 26 62 l26 58 24 -50 c12 -27 23 -56
23 -62z"/>
<path d="M5770 5964 c0 -5 10 -14 23 -19 21 -10 22 -14 22 -155 0 -144 0 -144
-25 -157 -29 -15 -30 -14 38 -16 55 -2 77 7 42 16 -17 4 -20 14 -20 70 0 35
-3 93 -6 128 -4 37 -3 61 2 56 5 -5 34 -65 64 -134 31 -70 60 -128 66 -130 6
-2 39 60 75 138 l64 142 3 -122 c3 -124 -3 -151 -34 -151 -8 0 -14 -3 -14 -7
0 -5 32 -8 70 -8 39 0 70 3 70 8 0 4 -6 7 -14 7 -22 0 -26 24 -26 165 0 126 1
135 22 149 29 21 22 24 -35 17 l-47 -6 -43 -95 c-24 -52 -50 -108 -59 -125
l-16 -30 -60 128 c-57 118 -63 127 -89 127 -15 0 -38 3 -50 6 -13 4 -23 2 -23
-2z"/>
<path d="M6360 5963 c-133 -55 -149 -261 -25 -330 85 -48 190 -17 233 67 42
85 21 191 -50 241 -32 23 -125 36 -158 22z m109 -28 c38 -19 56 -66 56 -145 0
-79 -18 -126 -56 -145 -83 -44 -159 26 -159 144 0 123 73 191 159 146z"/>
<path d="M7348 5959 c-6 -4 -1 -10 11 -14 28 -8 32 -32 29 -139 l-3 -89 -100
121 -100 121 -50 0 -50 1 33 -20 33 -20 -3 -138 c-3 -131 -4 -137 -25 -147
-36 -15 -28 -21 32 -21 59 -1 64 2 39 21 -14 9 -16 31 -15 125 1 63 3 115 4
116 1 1 52 -59 112 -133 l110 -135 5 163 c5 159 6 164 29 175 21 11 19 12 -29
15 -29 2 -57 1 -62 -2z"/>
<path d="M7545 5958 c-32 -18 -44 -40 -45 -79 0 -43 28 -77 88 -108 82 -42
105 -95 57 -127 -39 -26 -100 -5 -122 42 -19 38 -39 46 -29 12 3 -13 6 -41 6
-62 0 -35 2 -38 13 -22 10 14 17 15 40 7 49 -19 103 -13 135 14 63 53 44 114
-55 178 -37 24 -74 51 -81 60 -19 23 -11 49 20 66 41 23 78 6 106 -49 l22 -44
0 63 c0 54 -2 62 -14 52 -11 -9 -20 -9 -35 -2 -26 14 -81 13 -106 -1z"/>
<path d="M3940 5947 c25 -13 25 -13 25 -157 0 -144 0 -144 -25 -157 -22 -11
-17 -13 50 -12 55 0 69 3 53 9 -22 9 -23 13 -23 158 0 145 1 149 23 160 18 9
8 11 -53 11 -67 1 -72 -1 -50 -12z"/>
<path d="M4108 5948 c21 -11 22 -15 22 -160 0 -145 -1 -149 -22 -158 -17 -6 2
-9 70 -11 191 -6 173 -10 188 41 8 25 14 47 14 49 0 3 -15 -12 -34 -33 -34
-36 -36 -37 -98 -34 l-63 3 0 145 c0 144 0 144 25 157 22 11 17 13 -50 12 -61
0 -71 -2 -52 -11z"/>
<path d="M4420 5947 c25 -13 25 -13 25 -157 0 -144 0 -144 -25 -157 -22 -11
-18 -13 45 -13 52 1 66 3 53 11 -16 9 -18 27 -18 154 0 137 1 145 22 159 21
15 18 16 -52 16 -67 0 -72 -2 -50 -13z"/>
<path d="M6648 5944 c21 -14 22 -22 22 -149 0 -147 -3 -165 -31 -165 -10 0
-19 -3 -19 -7 0 -5 60 -7 132 -7 129 2 133 3 145 25 7 13 13 32 13 43 0 15 -6
12 -29 -13 -28 -30 -33 -32 -93 -29 l-63 3 0 145 c0 144 0 144 25 157 22 11
17 13 -50 13 -70 0 -73 -1 -52 -16z"/>
<path d="M6958 5950 c21 -9 22 -13 22 -160 0 -147 -1 -151 -22 -160 -13 -5
-21 -9 -18 -10 71 -13 177 -2 120 13 -19 5 -20 14 -20 155 0 145 1 149 23 160
18 9 8 11 -53 11 -55 0 -69 -3 -52 -9z"/>
<path d="M4377 5353 c-4 -3 -7 -14 -7 -23 0 -13 12 -19 52 -24 69 -9 112 -31
129 -64 11 -22 15 -117 17 -474 l3 -448 51 0 c28 0 103 -14 167 -31 199 -54
337 -40 416 41 32 33 36 42 25 55 -17 21 -37 19 -63 -6 -38 -37 -87 -52 -167
-52 -84 0 -142 19 -160 53 -14 26 -14 817 0 855 14 37 67 65 122 65 37 0 50 4
58 20 6 11 8 25 5 30 -7 11 -637 14 -648 3z"/>
<path d="M5230 5337 c0 -23 5 -26 60 -35 76 -14 116 -42 130 -90 8 -24 10
-157 8 -390 -2 -193 -1 -352 2 -352 3 0 23 18 44 39 l39 40 -5 139 c-4 77 -4
196 -1 265 l6 126 195 -452 c107 -249 209 -486 227 -527 27 -64 36 -75 58 -78
24 -3 30 3 48 45 11 26 63 147 114 268 51 121 129 303 172 405 44 102 92 219
108 260 16 41 32 79 37 84 12 14 10 -841 -2 -904 -12 -63 -31 -88 -74 -94
-109 -17 -106 -16 -106 -41 l0 -25 320 0 320 0 0 25 c0 20 -6 25 -37 30 -115
18 -138 35 -153 115 -15 78 -12 985 3 1029 17 48 56 73 122 79 50 4 55 7 55
28 l0 24 -207 0 -208 0 -87 -203 c-47 -111 -139 -322 -202 -469 -64 -147 -116
-273 -116 -280 0 -34 -45 60 -185 392 -126 296 -235 544 -244 553 -6 6 -101
12 -226 15 l-215 4 0 -25z"/>
<path d="M7906 5095 c-3 -8 -1 -15 4 -15 6 0 10 7 10 15 0 8 -2 15 -4 15 -2 0
-6 -7 -10 -15z"/>
<path d="M7900 5055 c-15 -18 -3 -185 13 -185 7 0 7 -4 -1 -12 -16 -16 -15
-28 3 -28 8 0 15 -4 15 -10 0 -5 -4 -10 -8 -10 -11 0 -8 -119 3 -144 5 -12 3
-21 -6 -27 -10 -6 -10 -9 -1 -9 6 0 12 -9 12 -20 0 -11 5 -20 11 -20 9 0 10
54 5 203 -8 268 -14 301 -46 262z"/>
<path d="M7800 5000 c-8 -5 -12 -11 -9 -14 2 -3 11 -1 19 4 8 5 12 11 9 14 -2
3 -11 1 -19 -4z"/>
<path d="M7805 4968 c-7 -8 -8 -38 -3 -87 5 -42 9 -88 10 -103 1 -18 5 -25 14
-21 17 6 18 20 2 26 -10 3 -10 7 -2 18 13 16 7 149 -7 149 -5 0 -6 7 -3 15 7
18 3 18 -11 3z"/>
<path d="M7930 4559 c0 -5 5 -7 10 -4 6 3 10 8 10 11 0 2 -4 4 -10 4 -5 0 -10
-5 -10 -11z"/>
<path d="M5605 4458 c-2 -7 -14 -42 -26 -78 -27 -80 -46 -120 -59 -120 -6 0
-10 38 -10 90 0 50 -4 90 -9 90 -15 0 -47 -50 -75 -119 -33 -83 -66 -124 -123
-158 -83 -48 -237 -66 -377 -43 -63 10 -93 30 -98 64 -2 17 -17 25 -78 43 -41
12 -98 22 -127 22 l-52 1 -7 -47 c-13 -94 -30 -108 -149 -131 -30 -6 -40 -13
-40 -27 0 -20 13 -20 673 -23 l672 -2 0 24 c0 26 -16 36 -61 36 -48 0 -69 16
-63 48 2 15 18 94 34 176 16 83 27 154 24 158 -8 13 -44 9 -49 -4z"/>
<path d="M3515 4280 c-3 -5 -1 -10 4 -10 6 0 11 5 11 10 0 6 -2 10 -4 10 -3 0
-8 -4 -11 -10z"/>
<path d="M6300 3771 c-15 -30 -12 -33 15 -15 28 18 33 34 10 34 -8 0 -19 -9
-25 -19z"/>
<path d="M4150 3710 c0 -5 5 -10 10 -10 15 0 13 -183 -2 -198 -9 -9 7 -12 74
-12 69 0 87 3 92 16 11 29 6 37 -13 20 -13 -12 -32 -16 -62 -14 -44 3 -44 3
-47 46 l-3 42 40 0 c23 0 41 -4 41 -10 0 -5 5 -10 10 -10 6 0 10 14 10 30 0
17 -4 30 -10 30 -5 0 -10 -4 -10 -10 0 -5 -18 -10 -40 -10 l-40 0 0 40 0 40
43 0 c24 0 48 -5 55 -12 9 -9 12 -7 12 10 0 21 -4 22 -80 22 -47 0 -80 -4 -80
-10z"/>
<path d="M4376 3698 c-24 -34 -19 -55 21 -85 63 -48 83 -71 77 -88 -13 -34
-94 -26 -94 10 0 7 -4 17 -10 20 -6 4 -10 -8 -10 -28 0 -33 2 -35 37 -39 54
-6 82 2 100 28 24 37 10 68 -47 103 -59 36 -71 58 -45 77 27 20 33 18 66 -17
l29 -31 0 34 0 34 -54 2 c-47 2 -57 -1 -70 -20z"/>
<path d="M4533 3705 c-3 -9 -2 -19 2 -23 4 -4 10 -1 12 6 3 6 18 12 34 12 l29
0 0 -93 c0 -59 -4 -97 -12 -105 -9 -9 -2 -12 32 -12 34 0 41 3 32 12 -8 8 -12
46 -12 105 0 89 1 93 22 93 12 0 30 -7 40 -17 18 -16 23 -8 12 21 -9 23 -182
24 -191 1z"/>
<path d="M4750 3711 c0 -6 5 -13 10 -16 6 -3 10 -41 10 -83 1 -86 10 -106 58
-123 26 -9 39 -7 69 8 l38 18 6 85 c3 47 9 93 13 103 7 14 3 17 -24 17 -29 0
-30 -1 -15 -17 14 -13 16 -31 13 -91 -3 -63 -7 -77 -27 -93 -30 -24 -56 -24
-81 1 -17 17 -20 33 -20 100 0 47 4 80 10 80 6 0 10 5 10 10 0 6 -16 10 -35
10 -19 0 -35 -4 -35 -9z"/>
<path d="M4998 3708 c16 -16 16 -190 0 -206 -9 -9 3 -12 55 -12 107 0 157 37
157 116 0 78 -54 114 -169 114 -43 0 -52 -3 -43 -12z m147 -33 c19 -18 25 -35
25 -69 0 -57 -30 -94 -80 -98 l-35 -3 -3 98 -3 97 36 0 c25 0 44 -8 60 -25z"/>
<path d="M5248 3708 c17 -17 17 -205 0 -211 -7 -3 7 -5 32 -5 25 0 39 2 33 5
-18 6 -18 194 -1 211 9 9 2 12 -32 12 -34 0 -41 -3 -32 -12z"/>
<path d="M5384 3686 c-28 -28 -34 -42 -34 -76 0 -53 25 -95 68 -116 73 -34
152 22 152 109 0 73 -40 116 -108 117 -37 0 -50 -6 -78 -34z m121 -1 c20 -20
25 -34 25 -78 0 -67 -26 -107 -70 -107 -44 0 -70 40 -70 107 0 44 5 58 25 78
31 32 59 32 90 0z"/>
<path d="M5708 3708 c14 -14 17 -225 3 -246 -5 -9 -17 -11 -36 -6 -21 5 -27 4
-23 -7 2 -8 19 -15 36 -17 49 -5 60 22 64 166 l3 122 -29 0 c-23 0 -27 -3 -18
-12z"/>
<path d="M5800 3711 c0 -6 5 -13 10 -16 6 -3 10 -42 10 -86 0 -97 15 -119 84
-119 73 0 90 22 94 122 2 45 9 89 14 96 8 9 1 12 -28 12 -35 -1 -37 -2 -21
-14 13 -10 17 -28 17 -87 0 -80 -4 -90 -37 -108 -31 -16 -50 -14 -73 9 -28 28
-30 173 -2 189 13 8 8 10 -25 11 -24 0 -43 -4 -43 -9z"/>
<path d="M6048 3709 c16 -17 17 -190 0 -207 -9 -9 -2 -12 32 -12 34 0 41 3 32
12 -7 7 -12 29 -12 50 0 53 21 49 60 -12 l32 -50 80 0 c72 0 78 1 64 16 -20
19 -23 173 -4 192 9 9 3 12 -27 12 -25 0 -35 -3 -27 -8 9 -6 12 -34 10 -103
l-3 -94 -29 0 c-24 0 -37 10 -64 44 l-34 45 26 19 c31 23 34 57 5 83 -25 22
-163 36 -141 13z m110 -21 c27 -27 1 -78 -39 -78 -16 0 -19 7 -19 45 0 40 2
45 23 45 13 0 28 -5 35 -12z"/>
<path d="M6385 3704 c19 -14 22 -183 3 -202 -21 -21 111 -15 152 7 87 46 68
175 -29 201 -51 13 -146 9 -126 -6z m140 -29 c20 -19 25 -34 25 -73 0 -58 -26
-88 -80 -94 l-35 -3 -3 98 -3 97 36 0 c25 0 44 -8 60 -25z"/>
<path d="M6636 3703 c12 -28 5 -196 -9 -205 -7 -4 8 -8 33 -8 34 0 41 3 32 12
-8 8 -12 46 -12 103 0 57 4 95 12 103 9 9 4 12 -26 12 -33 0 -37 -3 -30 -17z"/>
<path d="M6782 3705 c-110 -78 -21 -262 102 -211 20 8 36 20 36 26 0 7 -9 5
-22 -4 -34 -24 -66 -19 -99 13 -24 24 -29 38 -29 76 0 38 5 52 29 76 16 16 39
29 51 29 12 0 35 -13 51 -29 l29 -29 0 32 0 32 -62 2 c-44 2 -70 -2 -86 -13z"/>
<path d="M7011 3706 c-75 -42 -65 -178 16 -212 73 -31 153 28 153 113 0 38 -5
50 -34 79 -27 27 -42 34 -72 34 -22 -1 -50 -7 -63 -14z m100 -15 c21 -17 24
-28 24 -86 0 -58 -3 -69 -24 -86 -57 -46 -111 -3 -111 88 0 44 5 58 25 78 29
30 55 32 86 6z"/>
<path d="M7636 3553 c-6 -14 -5 -15 5 -6 7 7 10 15 7 18 -3 3 -9 -2 -12 -12z"/>
<path d="M7449 3478 c-21 -39 -121 -168 -130 -168 -5 0 -9 -5 -9 -12 0 -18 36
20 89 92 49 67 76 110 67 110 -3 0 -11 -10 -17 -22z"/>
<path d="M7560 3440 c0 -5 -11 -10 -24 -10 -14 0 -28 -4 -31 -10 -3 -5 1 -10
9 -10 9 0 16 -2 16 -5 0 -13 -42 -50 -57 -50 -8 0 -27 -15 -41 -33 -20 -26
-22 -32 -8 -32 22 0 20 -5 -10 -35 -18 -18 -29 -23 -34 -15 -5 8 -11 6 -20 -5
-10 -12 -10 -15 3 -15 10 0 14 -6 11 -15 -4 -8 -13 -15 -21 -15 -8 0 -11 5 -8
10 15 25 -9 4 -86 -76 -46 -47 -112 -109 -146 -137 -61 -49 -75 -67 -52 -67 5
0 7 5 4 10 -3 6 1 10 9 10 9 0 16 -4 16 -8 0 -9 -56 -62 -66 -62 -3 0 -12 -6
-20 -14 -7 -8 -19 -16 -26 -19 -7 -2 -10 -7 -7 -11 8 -8 177 125 273 214 135
127 361 410 326 410 -5 0 -10 -4 -10 -10z m-100 -124 c0 -3 -4 -8 -10 -11 -5
-3 -10 -1 -10 4 0 6 5 11 10 11 6 0 10 -2 10 -4z m-120 -151 c-7 -8 -19 -15
-27 -15 -13 0 -13 3 -3 15 7 8 19 15 27 15 13 0 13 -3 3 -15z m-120 -119 c0
-3 -4 -8 -10 -11 -5 -3 -10 -1 -10 4 0 6 5 11 10 11 6 0 10 -2 10 -4z m-50
-46 c0 -5 -7 -10 -16 -10 -8 0 -12 5 -9 10 3 6 10 10 16 10 5 0 9 -4 9 -10z
m-34 -35 c-8 -8 -19 -15 -25 -15 -6 0 -8 7 -5 15 4 8 15 15 26 15 17 0 18 -2
4 -15z"/>
<path d="M7481 3386 c-16 -19 -11 -29 8 -17 7 5 12 14 9 21 -3 9 -8 7 -17 -4z"/>
<path d="M7280 3270 c-8 -5 -11 -10 -5 -10 10 0 -13 -23 -80 -81 -31 -25 -34
-27 -16 -6 14 15 23 29 20 31 -2 2 -38 -30 -79 -72 -41 -42 -54 -56 -28 -32
26 24 50 41 53 38 6 -5 -71 -82 -117 -118 -10 -8 -33 -27 -51 -42 -18 -15 -35
-28 -39 -28 -5 0 -8 -4 -8 -10 0 -15 83 48 187 142 135 123 229 231 163 188z"/>
<path d="M7390 3270 c0 -5 5 -10 10 -10 6 0 10 5 10 10 0 6 -4 10 -10 10 -5 0
-10 -4 -10 -10z"/>
<path d="M7014 3038 l-19 -23 23 19 c12 11 22 21 22 23 0 8 -8 2 -26 -19z"/>
<path d="M4240 3031 c0 -10 19 -25 25 -20 1 2 -3 10 -11 17 -8 7 -14 8 -14 3z"/>
<path d="M4096 3008 c66 -75 242 -206 391 -289 178 -101 180 -101 187 -83 3 8
10 12 16 9 5 -3 10 -2 10 3 0 10 -24 22 -43 22 -7 0 -6 -4 3 -10 8 -5 11 -10
5 -10 -13 0 -43 20 -30 20 6 0 -3 9 -19 19 -20 14 -39 18 -59 14 -22 -4 -28
-3 -23 6 4 6 12 9 17 6 5 -4 9 -3 9 2 0 4 -11 13 -25 20 -14 6 -25 7 -25 2 0
-5 5 -9 11 -9 5 0 7 -4 4 -10 -4 -6 -11 -5 -19 3 -8 6 -11 16 -8 21 3 5 0 6
-6 2 -7 -4 -12 -1 -12 8 0 14 -27 28 -61 31 -24 2 -53 32 -36 38 6 2 -10 19
-37 38 -27 19 -73 53 -102 77 -30 24 -55 38 -59 32 -3 -5 -1 -10 4 -10 6 0 11
-5 11 -12 0 -6 -9 -3 -20 7 -11 10 -20 15 -20 11 0 -4 -16 9 -35 29 -39 38
-59 48 -29 13z m274 -172 c0 -11 -19 -15 -25 -6 -3 5 1 10 9 10 9 0 16 -2 16
-4z m85 -74 c-3 -3 -11 0 -18 7 -9 10 -8 11 6 5 10 -3 15 -9 12 -12z"/>
<path d="M4127 3023 c-3 -4 1 -14 9 -21 8 -7 14 -9 14 -5 0 4 4 1 10 -7 5 -8
11 -12 14 -9 3 3 -5 16 -18 28 -13 12 -26 19 -29 14z"/>
<path d="M6959 2993 c-13 -16 -12 -17 4 -4 9 7 17 15 17 17 0 8 -8 3 -21 -13z"/>
<path d="M4285 2990 c3 -5 11 -10 16 -10 6 0 7 5 4 10 -3 6 -11 10 -16 10 -6
0 -7 -4 -4 -10z"/>
<path d="M4319 2973 c-12 -15 -12 -16 3 -10 10 3 17 3 17 -1 -3 -19 2 -25 11
-12 7 12 12 12 22 2 6 -6 17 -12 23 -12 10 0 -45 49 -56 50 -4 0 -13 -8 -20
-17z"/>
<path d="M6919 2963 c-13 -16 -12 -17 4 -4 16 13 21 21 13 21 -2 0 -10 -8 -17
-17z"/>
<path d="M4367 2929 c7 -7 15 -10 18 -7 3 3 -2 9 -12 12 -14 6 -15 5 -6 -5z"/>
<path d="M4421 2922 c0 -7 -5 -10 -11 -7 -5 3 -10 2 -10 -3 0 -6 16 -19 35
-31 28 -16 35 -17 35 -6 0 8 -3 14 -7 14 -22 -4 -32 3 -36 24 -2 12 -5 16 -6
9z"/>
<path d="M6885 2913 c-16 -9 -32 -19 -35 -22 -13 -16 -51 -30 -67 -25 -15 5
-15 4 -3 -5 16 -11 15 -13 -15 -29 -11 -6 -15 -12 -9 -12 13 0 164 97 164 105
0 7 -1 7 -35 -12z"/>
<path d="M7015 2910 c-3 -5 1 -10 10 -10 9 0 13 5 10 10 -3 6 -8 10 -10 10 -2
0 -7 -4 -10 -10z"/>
<path d="M6966 2872 c-3 -6 -1 -14 5 -17 15 -10 25 3 12 16 -7 7 -13 7 -17 1z"/>
<path d="M4485 2850 c3 -5 11 -10 16 -10 6 0 7 5 4 10 -3 6 -11 10 -16 10 -6
0 -7 -4 -4 -10z"/>
<path d="M6914 2835 c-12 -9 -14 -14 -6 -15 7 0 20 7 28 15 20 19 4 20 -22 0z"/>
<path d="M4520 2830 c0 -5 5 -10 11 -10 5 0 7 5 4 10 -3 6 -8 10 -11 10 -2 0
-4 -4 -4 -10z"/>
<path d="M4560 2812 c0 -12 19 -26 26 -19 2 2 -2 10 -11 17 -9 8 -15 8 -15 2z"/>
<path d="M6930 2799 c0 -5 5 -7 10 -4 6 3 10 8 10 11 0 2 -4 4 -10 4 -5 0 -10
-5 -10 -11z"/>
<path d="M4605 2780 c3 -5 10 -10 16 -10 5 0 9 5 9 10 0 6 -7 10 -16 10 -8 0
-12 -4 -9 -10z"/>
<path d="M4655 2771 c-18 -7 -17 -9 12 -24 39 -21 39 -21 46 -3 4 11 1 13 -10
9 -12 -5 -14 -3 -8 8 7 11 5 11 -10 -1 -17 -14 -18 -13 -12 3 3 9 5 17 4 16
-1 0 -11 -4 -22 -8z"/>
<path d="M6615 2750 c-3 -5 -1 -10 4 -10 6 0 11 5 11 10 0 6 -2 10 -4 10 -3 0
-8 -4 -11 -10z"/>
<path d="M4737 2733 c-9 -2 -15 -9 -12 -14 9 -14 22 -11 29 6 3 8 4 14 3 14
-1 -1 -10 -3 -20 -6z"/>
<path d="M4764 2719 c-7 -12 17 -32 26 -22 3 3 -1 8 -8 10 -6 3 -10 9 -6 14 3
5 3 9 0 9 -3 0 -8 -5 -12 -11z"/>
<path d="M4800 2690 c0 -5 5 -10 11 -10 5 0 7 5 4 10 -3 6 -8 10 -11 10 -2 0
-4 -4 -4 -10z"/>
</g>
</svg>
